<?xml version="1.0" standalone="no"?>
<!DOCTYPE svg PUBLIC "-//W3C//DTD SVG 20010904//EN"
 "http://www.w3.org/TR/2001/REC-SVG-20010904/DTD/svg10.dtd">
<svg version="1.0" xmlns="http://www.w3.org/2000/svg"
 width="1812.000000pt" height="1448.000000pt" viewBox="0 0 1812.000000 1448.000000"
 preserveAspectRatio="xMidYMid meet">

<g transform="translate(0.000000,1448.000000) scale(0.100000,-0.100000)"
fill="#000000" stroke="none">
<path d="M0 7240 l0 -7240 9060 0 9060 0 0 7240 0 7240 -9060 0 -9060 0 0
-7240z m9510 4201 c497 -74 920 -230 1340 -494 201 -126 447 -331 628 -523
129 -135 133 -141 90 -148 -18 -3 -658 -32 -1423 -66 -1219 -53 -1606 -74
-1475 -79 19 0 726 -33 1570 -71 844 -38 1546 -70 1560 -70 21 0 36 -16 86
-97 34 -54 71 -117 83 -140 l21 -43 -22 -4 c-13 -3 -453 -23 -978 -46 -525
-23 -962 -46 -970 -51 -10 -6 -1 -8 29 -9 138 -1 2037 -92 2043 -98 11 -12 86
-206 128 -332 107 -325 165 -688 158 -990 l-3 -135 -955 -77 c-525 -42 -968
-78 -985 -78 l-30 -2 35 -9 c19 -4 442 -40 940 -79 498 -39 920 -73 938 -76
27 -4 32 -9 32 -33 0 -93 -79 -427 -147 -625 -48 -139 -175 -432 -195 -453
-10 -10 -24 -3 -66 32 -89 74 -1081 1015 -1092 1035 -6 11 -15 20 -21 20 -5 0
-105 -64 -221 -141 -117 -78 -219 -144 -228 -146 -9 -2 -181 163 -477 459
l-462 463 -772 -618 c-425 -340 -776 -616 -780 -615 -17 7 -559 501 -559 510
0 6 -8 8 -18 6 -10 -3 -276 -227 -591 -499 -316 -272 -583 -500 -593 -507 -17
-13 -23 -4 -82 120 -197 410 -316 920 -316 1350 l0 106 73 6 c39 3 707 33
1482 66 1290 55 1538 68 1480 77 -16 2 -2962 133 -3002 133 -8 0 -13 14 -13
39 0 57 48 333 60 345 6 6 413 28 1013 54 551 24 1004 46 1006 48 2 2 2 6 0 8
-2 2 -445 23 -984 46 -539 24 -982 44 -984 46 -8 7 42 162 96 299 251 632 692
1182 1244 1551 454 304 940 481 1511 549 168 21 620 13 798 -14z m-6870 -5906
l0 -115 -120 0 -120 0 -2 -427 -3 -428 -130 0 -130 0 -3 428 -2 427 -120 0
-120 0 0 115 0 115 375 0 375 0 0 -115z m650 -95 l0 -210 130 0 130 0 2 208 3
207 133 3 132 3 0 -546 0 -546 -132 3 -133 3 -3 218 -2 217 -130 0 -130 0 0
-220 0 -220 -130 0 -130 0 0 545 0 545 130 0 130 0 0 -210z m1655 95 l0 -110
-207 -3 -208 -2 0 -95 0 -95 175 0 176 0 -3 -112 -3 -113 -172 -3 -173 -2 0
-105 0 -105 210 0 211 0 -3 -112 -3 -113 -342 -3 -343 -2 0 545 0 545 343 -2
342 -3 0 -110z m1257 -92 l3 -208 130 0 130 0 3 208 2 207 130 0 130 0 0 -545
0 -545 -130 0 -130 0 0 220 0 221 -132 -3 -133 -3 -3 -217 -2 -218 -130 0
-130 0 0 545 0 545 130 0 130 0 2 -207z m1542 190 c3 -10 59 -245 125 -523 67
-278 123 -515 126 -528 l6 -23 -143 3 -142 3 -21 105 -21 105 -115 3 -115 3
-19 -98 c-10 -54 -20 -104 -22 -110 -4 -10 -42 -13 -145 -13 l-140 0 5 23 c4
12 60 252 127 532 66 281 123 516 125 523 3 9 49 12 184 12 162 0 180 -2 185
-17z m1203 -7 c76 -24 133 -72 168 -141 29 -56 30 -64 30 -189 0 -116 -3 -137
-23 -181 -31 -68 -73 -108 -146 -141 -54 -24 -76 -28 -193 -32 l-133 -5 0
-189 0 -189 -132 3 -133 3 -3 543 -2 544 257 -4 c207 -4 268 -8 310 -22z
m1158 0 c116 -42 173 -112 196 -240 6 -39 9 -100 6 -140 -19 -220 -130 -306
-397 -306 l-100 0 -2 -187 -3 -188 -132 -3 -133 -3 0 547 0 546 258 -4 c215
-4 265 -7 307 -22z m881 -179 c38 -109 74 -199 78 -200 5 -1 41 89 80 200 l71
203 143 0 c78 0 142 -3 142 -6 0 -3 -66 -166 -147 -362 l-148 -357 -5 -180 -5
-180 -130 0 -130 0 -5 180 -6 180 -147 354 c-81 195 -147 358 -147 363 0 5 64
7 143 6 l142 -3 71 -198z m2174 88 l0 -114 -122 -3 -123 -3 -3 -427 -2 -428
-130 0 -130 0 0 430 0 430 -119 0 c-99 0 -120 3 -125 16 -8 21 -8 199 1 207 3
4 174 7 380 7 l373 0 0 -115z m880 105 c84 -14 162 -52 200 -98 50 -61 65
-121 65 -257 -1 -103 -4 -127 -24 -173 -22 -48 -99 -132 -122 -132 -17 0 -8
-28 71 -220 44 -107 80 -195 80 -197 0 -2 -65 -3 -144 -3 l-143 0 -73 190 -73
190 -33 0 -34 0 0 -190 0 -190 -135 0 -135 0 0 545 0 545 218 0 c119 0 246 -5
282 -10z m960 -535 l0 -545 -130 0 -130 0 0 545 0 545 130 0 130 0 0 -545z
m1024 516 c73 -29 127 -77 157 -139 27 -58 39 -234 20 -317 -22 -99 -93 -175
-193 -207 -18 -5 -91 -13 -163 -17 l-130 -6 -3 -187 -2 -188 -130 0 -130 0 0
546 0 546 258 -4 c239 -4 261 -6 316 -27z m-11358 -2077 c49 -36 66 -68 68
-125 l1 -54 -67 -3 c-67 -3 -68 -3 -68 23 0 30 -41 75 -67 75 -32 0 -63 -29
-63 -59 0 -38 13 -47 97 -65 137 -28 173 -63 173 -166 0 -113 -56 -167 -183
-177 -119 -10 -204 36 -226 121 -19 76 -19 76 58 76 65 0 69 -2 75 -24 9 -36
33 -56 68 -56 61 0 92 64 46 94 -13 8 -56 22 -96 30 -121 25 -154 61 -154 168
0 72 26 118 85 148 58 29 211 26 253 -6z m7660 5 c51 -24 84 -83 84 -148 l0
-42 -67 3 c-66 3 -68 4 -73 32 -7 41 -52 73 -86 60 -35 -12 -49 -35 -41 -66 8
-30 17 -34 111 -54 123 -26 159 -64 158 -169 -1 -98 -57 -158 -158 -171 -149
-18 -241 35 -252 145 l-5 51 66 0 c59 0 66 -2 73 -22 11 -37 35 -58 66 -58 45
0 68 17 68 49 0 39 -25 58 -99 71 -125 22 -171 67 -171 164 0 78 34 134 98
163 47 20 180 16 228 -8z m3472 1 c50 -23 81 -79 82 -147 l0 -43 -63 0 -64 0
-12 40 c-9 29 -20 44 -39 51 -37 15 -74 0 -86 -33 -14 -39 13 -64 83 -78 158
-31 204 -82 185 -207 -9 -61 -60 -116 -124 -133 -58 -16 -159 -8 -207 17 -44
22 -83 88 -83 140 l0 33 70 0 c65 0 70 -1 70 -22 0 -54 79 -79 120 -38 43 43
11 82 -80 98 -121 22 -168 62 -176 153 -7 75 23 135 86 167 59 29 175 31 238
2z m675 -10 c61 -41 81 -95 85 -231 8 -237 -62 -330 -238 -317 -151 12 -208
104 -198 322 10 197 65 259 229 254 72 -3 91 -7 122 -28z m-15233 -35 l0 -55
-59 0 c-44 0 -60 -4 -65 -16 -3 -9 -6 -110 -6 -225 l0 -209 -65 0 -65 0 -2
223 -3 222 -62 3 -63 3 0 54 0 55 195 0 195 0 0 -55z m370 -50 l0 -105 70 0
70 0 0 105 0 105 70 0 70 0 -2 -277 -3 -278 -67 -3 -68 -3 0 116 0 116 -67 -3
-68 -3 -3 -113 -3 -113 -67 3 -67 3 -3 278 -2 277 70 0 70 0 0 -105z m890 50
l0 -54 -107 -3 -108 -3 -3 -47 -3 -48 90 0 91 0 0 -60 0 -60 -90 0 -90 0 0
-55 0 -54 108 -3 107 -3 0 -55 0 -55 -177 -3 -178 -2 0 280 0 280 180 0 180 0
0 -55z m885 41 c50 -21 75 -68 75 -139 0 -37 -6 -69 -16 -87 -16 -26 -16 -29
7 -59 19 -25 24 -45 24 -89 0 -74 -19 -117 -64 -144 -32 -20 -52 -23 -183 -27
l-148 -3 0 281 0 281 135 0 c95 0 146 -4 170 -14z m705 -41 l0 -55 -105 0
-105 0 0 -50 0 -50 90 0 90 0 0 -60 0 -60 -90 0 -90 0 0 -55 0 -55 105 0 105
0 0 -60 0 -60 -175 0 -175 0 0 280 0 280 175 0 175 0 0 -55z m1270 0 l0 -55
-60 0 -60 0 -2 -222 -3 -223 -67 -3 -68 -3 -2 223 -3 223 -62 3 -63 3 0 54 0
55 195 0 195 0 0 -55z m930 0 l0 -54 -62 -3 -63 -3 -3 -222 -2 -223 -65 0 -65
0 0 209 c0 115 -3 216 -6 225 -5 12 -21 16 -65 16 l-59 0 0 55 0 55 195 0 195
0 0 -55z m550 37 c93 -45 110 -231 27 -304 l-31 -27 41 -103 41 -103 -71 -3
c-81 -3 -75 -8 -113 98 -48 136 -74 134 -74 -6 l0 -94 -70 0 -70 0 0 280 0
280 143 0 c113 -1 149 -4 177 -18z m470 -262 l0 -281 -67 3 -68 3 -3 278 -2
277 70 0 70 0 0 -280z m577 261 c58 -27 78 -67 78 -161 0 -129 -40 -169 -175
-179 l-75 -6 -3 -97 -3 -98 -69 0 -70 0 0 280 0 280 138 0 c113 0 144 -4 179
-19z m1013 -36 l0 -55 -60 0 -60 0 0 -225 0 -225 -70 0 -70 0 -2 223 -3 222
-62 3 -63 3 0 54 0 55 195 0 195 0 0 -55z m372 -47 l3 -103 68 -3 67 -3 0 106
0 105 70 0 70 0 0 -280 0 -280 -70 0 -70 0 0 115 0 116 -67 -3 -68 -3 -3 -112
-3 -113 -64 0 -65 0 0 280 0 280 65 0 64 0 3 -102z m898 47 l0 -54 -107 -3
-108 -3 0 -45 0 -45 88 -3 87 -3 0 -59 0 -59 -87 -3 -88 -3 0 -50 0 -50 105
-5 105 -5 3 -58 3 -57 -178 2 -178 3 -3 278 -2 277 180 0 180 0 0 -55z m897
35 c48 -29 65 -62 66 -127 1 -41 -4 -67 -18 -90 l-19 -32 24 -26 c33 -35 40
-134 13 -185 -33 -63 -68 -75 -235 -78 l-148 -4 0 281 0 281 143 0 c123 0 146
-3 174 -20z m693 -35 l0 -54 -107 -3 -108 -3 -3 -47 -3 -48 90 0 91 0 0 -60 0
-60 -90 0 -90 0 0 -55 0 -54 108 -3 107 -3 0 -55 0 -55 -177 -3 -178 -2 0 280
0 280 180 0 180 0 0 -55z m1260 0 l0 -55 -60 0 -60 0 0 -225 0 -225 -70 0 -70
0 -2 223 -3 222 -62 3 -63 3 0 54 0 55 195 0 195 0 0 -55z m883 41 c75 -31
110 -120 87 -223 -20 -86 -75 -123 -185 -123 l-65 0 -1 -32 c-1 -18 -2 -62 -2
-98 l-2 -65 -67 -3 -68 -3 0 281 0 280 135 0 c92 0 146 -4 168 -14z m677 -41
l0 -54 -107 -3 -108 -3 0 -45 0 -45 90 -5 90 -5 0 -55 0 -55 -90 -5 -90 -5 0
-50 0 -50 108 -3 107 -3 0 -60 0 -59 -177 2 -178 3 -3 278 -2 277 180 0 180 0
0 -55z m569 37 c55 -27 75 -63 79 -141 5 -84 -10 -132 -50 -166 l-30 -25 37
-93 c21 -50 39 -98 42 -104 4 -10 -14 -13 -70 -13 l-74 0 -33 88 c-55 148 -80
150 -80 6 l0 -95 -67 3 -68 3 -3 278 -2 277 142 0 c116 0 149 -3 177 -18z
m1883 -124 l73 -143 3 143 3 142 64 0 65 0 0 -280 0 -280 -75 0 -75 0 -72 143
-73 142 -3 -142 -3 -143 -64 0 -65 0 0 280 0 280 75 0 75 0 72 -142z"/>
<path d="M7541 5258 c-6 -29 -19 -94 -30 -145 -10 -51 -16 -95 -13 -98 3 -3
32 -5 64 -5 49 0 58 3 58 18 0 35 -53 282 -61 282 -4 0 -12 -24 -18 -52z"/>
<path d="M8652 5293 l3 -128 65 0 c90 1 117 10 140 48 37 59 20 170 -29 197
-11 5 -56 10 -101 10 l-81 0 3 -127z"/>
<path d="M9812 5293 l3 -128 76 1 c41 1 85 7 98 13 47 25 65 123 36 186 -21
43 -51 55 -141 55 l-75 0 3 -127z"/>
<path d="M13812 5293 l3 -128 65 0 c36 0 78 4 93 8 79 21 92 193 16 232 -17 9
-57 15 -104 15 l-76 0 3 -127z"/>
<path d="M15712 5293 l3 -128 35 -3 c68 -7 137 8 164 35 49 49 43 160 -11 203
-21 16 -41 20 -110 20 l-84 0 3 -127z"/>
<path d="M16293 3436 c-27 -23 -28 -28 -31 -133 -5 -159 22 -209 103 -189 44
11 57 55 53 183 -3 112 -4 115 -31 139 -35 30 -59 30 -94 0z"/>
<path d="M3220 3400 l0 -50 38 0 c45 0 62 14 62 52 0 32 -24 48 -69 48 -30 0
-31 -1 -31 -50z"/>
<path d="M3220 3174 l0 -55 47 3 c39 2 50 8 62 29 13 24 13 29 -2 53 -15 22
-25 26 -62 26 l-45 0 0 -56z"/>
<path d="M6664 3436 c-3 -7 -4 -38 -2 -67 l3 -54 37 -3 c68 -6 105 71 58 118
-23 23 -88 28 -96 6z"/>
<path d="M7710 3380 l0 -70 40 0 c49 0 80 27 80 70 0 43 -31 70 -80 70 l-40 0
0 -70z"/>
<path d="M10897 3443 c-4 -3 -7 -26 -7 -50 l0 -44 47 3 c42 3 49 6 58 32 8 24
6 31 -14 47 -23 19 -71 26 -84 12z"/>
<path d="M10890 3175 l0 -55 48 0 c55 0 72 12 72 51 0 40 -24 59 -76 59 l-44
0 0 -55z"/>
<path d="M13740 3380 l0 -70 38 0 c47 0 75 27 75 72 0 39 -33 68 -79 68 l-34
0 0 -70z"/>
<path d="M14974 3436 c-3 -7 -4 -38 -2 -67 3 -53 4 -54 36 -57 51 -5 82 20 82
68 0 29 -6 43 -22 54 -28 20 -87 21 -94 2z"/>
</g>
</svg>
